<svg width="108" height="24" viewBox="0 0 108 24" xmlns="http://www.w3.org/2000/svg" xmlns:xlink="http://www.w3.org/1999/xlink">
    <defs>
        <path id="yjrzd84y6a" d="M0 0h17.973v17.403H0z"/>
    </defs>
    <g fill="none" fill-rule="evenodd">
        <path d="M55.478 5.164a23.06 23.06 0 0 0 2.85 11.14 24.332 24.332 0 0 1 3.713-11.14h6.808a29.556 29.556 0 0 0-5.578 16.22h-8.343a27.981 27.981 0 0 1-5.586-16.22h6.136zM75.796 5.164a23.06 23.06 0 0 0 2.85 11.14 24.332 24.332 0 0 1 3.713-11.14h6.808a29.557 29.557 0 0 0-5.578 16.22h-8.343a27.981 27.981 0 0 1-5.586-16.22h6.136zM24.437 21.384a25.21 25.21 0 0 1 4.544-16.22h-6.774a19.977 19.977 0 0 0-2.57 9.053 21.71 21.71 0 0 1-1.15-11.135h-5.462a21.597 21.597 0 0 0-3.12 11.127A25.537 25.537 0 0 1 8.976 1H2.329c-1.135 7.565.67 15.485 5.414 21.918h6.704a21.838 21.838 0 0 1 .106-9.16 21.506 21.506 0 0 0 3.175 7.626h6.71zM37.462 16.868c-2.16 0-3.65-1.609-3.65-3.594 0-1.985 1.49-3.595 3.65-3.595 2.159 0 3.65 1.61 3.65 3.595s-1.491 3.594-3.65 3.594zm4.685-11.704c-.076.412-.146.825-.21 1.239a8.357 8.357 0 0 0-5.268-1.83c-4.824 0-8.63 3.859-8.63 8.701 0 4.842 3.806 8.701 8.63 8.701 1.985 0 3.81-.662 5.267-1.83.065.414.135.826.211 1.238h5.486a44.63 44.63 0 0 1 0-16.219h-5.486z" fill="#FFF"/>
        <g transform="translate(88.027 4.573)">
            <mask id="omd5fisebb" fill="#fff">
                <use xlink:href="#yjrzd84y6a"/>
            </mask>
            <path d="M5.699 6.825c.5-1.66 1.88-2.48 3.469-2.48s2.899.864 3.404 2.48H5.699zM9.158 0C3.36 0 0 4.179 0 8.62c0 4.815 3.563 8.783 9.816 8.783 2.69 0 5.4-.757 7.104-1.593v-4.773c-1.721.905-4.075 1.708-6.334 1.708-2.691 0-4.385-1.097-4.87-2.725h12.21C18.428 4.06 14.826 0 9.158 0z" fill="#FFF" mask="url(#omd5fisebb)"/>
        </g>
    </g>
</svg>
