<svg width="94" height="38" viewBox="0 0 94 38" xmlns="http://www.w3.org/2000/svg">
    <g fill="none" fill-rule="evenodd">
        <path d="M0 0h94v38H0z"/>
        <g fill="#FFF">
            <path d="M80.21 13.695a5.79 5.79 0 0 1 0 11.581h-8.107a5.79 5.79 0 1 1 0-11.581zm-8.108 2.432a3.359 3.359 0 1 0 0 6.717 3.359 3.359 0 0 0 0-6.717zm7.79.058a2.46 2.46 0 0 0-1.942.928v-.834h-1.524v6.507h1.524V19.25c0-1.185.768-1.678 1.557-1.678.776 0 1.533.452 1.533 1.678v3.536h1.524V18.97c0-1.884-1.13-2.784-2.672-2.784zm-7.79 1.39a1.91 1.91 0 1 1 0 3.821 1.91 1.91 0 0 1 0-3.821zM36.258 15.2c0 2.134.546 4.14 1.506 5.887.17-2.154.866-4.159 1.962-5.887h3.597a15.617 15.617 0 0 0-2.948 8.57h-4.408a14.786 14.786 0 0 1-2.951-8.57h3.242zM46.994 15.2c0 2.134.546 4.14 1.505 5.887.17-2.154.867-4.159 1.963-5.887h3.597a15.617 15.617 0 0 0-2.948 8.57h-4.408a14.786 14.786 0 0 1-2.951-8.57h3.242zM19.856 23.77a13.32 13.32 0 0 1 2.4-8.57h-3.579a10.555 10.555 0 0 0-1.358 4.784 11.473 11.473 0 0 1-.607-5.884h-2.886a11.413 11.413 0 0 0-1.65 5.88 13.494 13.494 0 0 1-.49-6.98H8.174c-.6 3.997.353 8.182 2.86 11.581h3.543a11.542 11.542 0 0 1 .056-4.84c.29 1.415.849 2.786 1.678 4.03h3.545zM26.738 21.385c-1.141 0-1.928-.85-1.928-1.9 0-1.049.787-1.899 1.928-1.899 1.14 0 1.928.85 1.928 1.9 0 1.048-.787 1.899-1.928 1.899zm2.476-6.185c-.04.218-.078.436-.112.655a4.416 4.416 0 0 0-2.783-.967c-2.55 0-4.56 2.039-4.56 4.597 0 2.559 2.01 4.598 4.56 4.598 1.049 0 2.014-.35 2.783-.967.034.219.071.437.112.654h2.898a23.584 23.584 0 0 1 0-8.57h-2.898zM56.468 18.494c.264-.877.994-1.31 1.833-1.31.84 0 1.532.456 1.798 1.31h-3.631zm1.828-3.606c-3.063 0-4.84 2.208-4.84 4.555 0 2.543 1.883 4.64 5.187 4.64 1.421 0 2.853-.4 3.754-.841v-2.523c-.91.479-2.153.903-3.347.903-1.422 0-2.317-.58-2.573-1.44h6.452c.265-3.15-1.639-5.294-4.633-5.294z"/>
        </g>
    </g>
</svg>
